<?xml version="1.0" encoding="UTF-8" standalone="no"?>
<!-- Created with Inkscape (http://www.inkscape.org/) -->

<svg
   width="210mm"
   height="297mm"
   viewBox="0 0 210 297"
   version="1.1"
   id="svg1"
   inkscape:version="1.3 (0e150ed6c4, 2023-07-21)"
   sodipodi:docname="Logo.svg"
   xmlns:inkscape="http://www.inkscape.org/namespaces/inkscape"
   xmlns:sodipodi="http://sodipodi.sourceforge.net/DTD/sodipodi-0.dtd"
   xmlns="http://www.w3.org/2000/svg"
   xmlns:svg="http://www.w3.org/2000/svg">
  <sodipodi:namedview
     id="namedview1"
     pagecolor="#ffffff"
     bordercolor="#000000"
     borderopacity="0.25"
     inkscape:showpageshadow="2"
     inkscape:pageopacity="0.0"
     inkscape:pagecheckerboard="0"
     inkscape:deskcolor="#d1d1d1"
     inkscape:document-units="mm"
     inkscape:zoom="1.4627806"
     inkscape:cx="266.95733"
     inkscape:cy="239.61215"
     inkscape:window-width="1920"
     inkscape:window-height="1017"
     inkscape:window-x="-8"
     inkscape:window-y="-8"
     inkscape:window-maximized="1"
     inkscape:current-layer="layer1" />
  <defs
     id="defs1">
    <rect
       x="267.98278"
       y="169.54012"
       width="239.95396"
       height="92.289986"
       id="rect61" />
    <rect
       x="109.38072"
       y="54.006733"
       width="288.49166"
       height="90.922727"
       id="rect51" />
    <rect
       x="269.35003"
       y="489.47874"
       width="177.74368"
       height="217.39419"
       id="rect3" />
    <rect
       x="144.92946"
       y="162.70383"
       width="147.66397"
       height="225.59774"
       id="rect2" />
    <rect
       x="146.29672"
       y="233.8013"
       width="611.1648"
       height="637.14272"
       id="rect1" />
    <filter
       inkscape:label="Neon"
       inkscape:menu="Bevels"
       inkscape:menu-tooltip="Neon light effect"
       x="-0.097396709"
       y="-0.11440511"
       width="1.1947934"
       height="1.2288102"
       style="color-interpolation-filters:sRGB;"
       id="filter44">
      <feGaussianBlur
         stdDeviation="1.4510015"
         result="result1"
         id="feGaussianBlur39" />
      <feComposite
         in="result1"
         in2="result1"
         result="result4"
         operator="in"
         id="feComposite39" />
      <feGaussianBlur
         stdDeviation="7"
         result="result6"
         in="result4"
         id="feGaussianBlur40" />
      <feComposite
         operator="over"
         in="result6"
         in2="result4"
         result="result8"
         id="feComposite40" />
      <feComposite
         operator="in"
         result="fbSourceGraphic"
         in="result6"
         in2="result8"
         id="feComposite41" />
      <feSpecularLighting
         specularExponent="45"
         specularConstant="2"
         surfaceScale="2.5"
         lighting-color="rgb(255,255,255)"
         result="result1"
         in="fbSourceGraphic"
         id="feSpecularLighting41">
        <fePointLight
           z="20000"
           y="-10000"
           x="-5000"
           id="fePointLight41" />
      </feSpecularLighting>
      <feComposite
         operator="in"
         result="result2"
         in="result1"
         in2="fbSourceGraphic"
         id="feComposite42" />
      <feComposite
         k3="1.5"
         k2="1.2"
         operator="arithmetic"
         result="result4"
         in="fbSourceGraphic"
         in2="result2"
         id="feComposite43" />
      <feComposite
         operator="over"
         in="result9"
         in2="result4"
         result="result9"
         id="feComposite44" />
      <feBlend
         mode="screen"
         in2="result9"
         id="feBlend44" />
    </filter>
    <rect
       x="109.38072"
       y="54.006733"
       width="522.97659"
       height="190.04901"
       id="rect57" />
    <rect
       x="109.38072"
       y="54.006733"
       width="522.97659"
       height="190.04901"
       id="rect58" />
    <rect
       x="109.38072"
       y="54.006733"
       width="522.97659"
       height="190.04901"
       id="rect59" />
    <rect
       x="109.38072"
       y="54.006733"
       width="522.97659"
       height="190.04901"
       id="rect60" />
    <filter
       inkscape:collect="always"
       style="color-interpolation-filters:sRGB"
       id="filter62"
       x="-0.23325676"
       y="-0.2313832"
       width="1.4665135"
       height="1.4627664">
      <feGaussianBlur
         inkscape:collect="always"
         stdDeviation="4.1619257"
         id="feGaussianBlur62" />
    </filter>
    <filter
       inkscape:collect="always"
       style="color-interpolation-filters:sRGB"
       id="filter63"
       x="-0.063118783"
       y="-0.20980901"
       width="1.1262376"
       height="1.419618">
      <feGaussianBlur
         inkscape:collect="always"
         stdDeviation="9.1608671"
         id="feGaussianBlur63" />
    </filter>
  </defs>
  <g
     inkscape:label="Camada 1"
     inkscape:groupmode="layer"
     id="layer1">
    <ellipse
       style="opacity:1;mix-blend-mode:normal;fill:#ffffff;fill-opacity:1;stroke:#c60593;stroke-width:0.865;stroke-dasharray:none;stroke-opacity:1;filter:url(#filter62)"
       id="path62"
       cx="94.689095"
       cy="70.632462"
       rx="22.338306"
       ry="22.519184" />
    <path
       id="text51"
       style="font-size:80px;white-space:pre;shape-inside:url(#rect51);display:inline;opacity:1;mix-blend-mode:normal;fill:#ffffff;fill-opacity:1;stroke:#c60593;stroke-width:3.26929;stroke-dasharray:none;stroke-opacity:1;filter:url(#filter63)"
       inkscape:label="text51"
       d="m 171.29492,66.210938 v 60.781252 h 7.34375 V 94.414064 c 2.00521,-1.536457 4.10157,-2.799481 6.28907,-3.789063 2.18749,-0.989582 4.28385,-1.484375 6.28906,-1.484375 1.95312,0 3.54167,0.273438 4.76562,0.820313 1.22396,0.520832 2.16146,1.328126 2.8125,2.421875 0.625,0.989582 1.05469,2.369793 1.28907,4.140625 0.23437,1.74479 0.35156,3.619791 0.35156,5.625001 v 24.84375 h 7.34375 V 98.671876 c 0,-5.338536 -1.23698,-9.427086 -3.71094,-12.265625 -2.47395,-2.838539 -6.06771,-4.257812 -10.78125,-4.257812 -2.57812,0 -5.09115,0.533855 -7.53906,1.601562 -2.44792,1.067707 -4.81771,2.552085 -7.10938,4.453125 V 66.210938 Z m 208.51563,0 v 18.906251 c -1.95312,-1.015624 -3.8151,-1.757813 -5.58594,-2.226563 -1.77083,-0.494791 -3.80208,-0.742187 -6.09375,-0.742187 -2.52604,0 -4.97396,0.520834 -7.34375,1.5625 -2.34374,1.041665 -4.40104,2.552085 -6.17187,4.53125 -1.79687,2.031248 -3.22917,4.49219 -4.29688,7.382812 -1.04166,2.890622 -1.5625,6.184899 -1.5625,9.882809 0,7.10937 1.52344,12.66928 4.57032,16.67969 3.07291,4.01041 7.21354,6.01563 12.42187,6.01563 2.68229,0 5.16927,-0.50782 7.46094,-1.52344 2.29166,-1.01562 4.49219,-2.4349 6.60156,-4.25781 v 4.57031 h 7.34375 V 66.210938 Z m -243.00781,1.5625 c -6.32812,0 -11.54949,1.562504 -15.66407,4.6875 -4.11458,3.098956 -6.17187,7.083339 -6.17187,11.953126 0,4.244787 1.23698,7.695315 3.71094,10.351562 2.49999,2.630206 6.32813,4.492189 11.48437,5.585934 2.55208,0.52084 4.96094,0.95052 7.22656,1.28907 2.29167,0.33854 4.41407,0.76823 6.36719,1.28906 2.57812,0.67708 4.49219,1.6276 5.74219,2.85156 1.27604,1.22396 1.91406,3.125 1.91406,5.70313 0,2.99479 -1.34115,5.39062 -4.02344,7.1875 -2.65624,1.79687 -6.38021,2.69531 -11.17187,2.69531 -3.38541,0 -7.00521,-0.66406 -10.85938,-1.99219 -3.85416,-1.32812 -7.2526,-3.21615 -10.19531,-5.66406 h -0.54687 v 9.6875 c 3.46353,1.53646 6.86198,2.69531 10.19531,3.47656 3.35937,0.78125 7.13542,1.17188 11.32812,1.17188 3.90625,0 7.23959,-0.46875 10,-1.40625 2.78646,-0.9375 5.22136,-2.23959 7.30469,-3.90625 1.90104,-1.53646 3.3724,-3.41146 4.41406,-5.625 1.06771,-2.21354 1.60157,-4.45313 1.60157,-6.71875 0,-4.16667 -1.09376,-7.40886 -3.28125,-9.72657 -2.1875,-2.317702 -5.44272,-4.049477 -9.76563,-5.195309 -2.13541,-0.546874 -4.73959,-1.08073 -7.8125,-1.601562 -3.07291,-0.520833 -5.44271,-0.963542 -7.10937,-1.328125 -3.15104,-0.729166 -5.35157,-1.783856 -6.60157,-3.164063 -1.25,-1.380207 -1.875,-3.281252 -1.875,-5.703125 0,-2.708331 1.25001,-4.921877 3.75,-6.640625 2.52604,-1.718748 5.85938,-2.578125 10,-2.578125 3.77604,0 7.46094,0.625001 11.05469,1.875 3.61979,1.223957 6.53646,2.773439 8.75,4.648438 h 0.54688 v -9.140626 c -2.63021,-1.145832 -5.65105,-2.109375 -9.0625,-2.890625 -3.41146,-0.781249 -7.16147,-1.171875 -11.25,-1.171875 z m 185.42969,14.375001 c -6.35416,0 -11.48438,2.096358 -15.39063,6.289062 -3.8802,4.192704 -5.82031,9.856778 -5.82031,16.992189 0,5.5519 1.21658,10.12225 3.62305,13.73047 -2.57636,-0.52049 -5.16156,-0.79688 -7.75586,-0.79688 -4.27083,0 -8.16407,0.66407 -11.67969,1.99219 -3.02165,1.15003 -5.6383,2.77795 -7.89844,4.82617 V 96.015626 c 1.95312,-1.58854 3.98438,-2.877605 6.09375,-3.867187 2.10937,-1.015624 4.29688,-1.523438 6.5625,-1.523438 1.40625,0 2.61719,0.0651 3.63281,0.195313 1.04167,0.104166 2.10938,0.286458 3.20313,0.546875 h 0.39062 v -7.539063 c -1.14583,-0.182291 -2.00521,-0.299479 -2.57812,-0.351562 -0.57292,-0.07813 -1.4974,-0.117188 -2.77344,-0.117188 -2.31771,0 -4.59636,0.494793 -6.83594,1.484375 -2.21354,0.963541 -4.77865,2.61719 -7.69531,4.960938 v -6.445313 h -7.34375 v 43.632814 h 5.55078 c -2.17665,2.4433 -3.89932,5.32977 -5.11328,8.71484 -1.35417,3.77604 -2.03125,8.0599 -2.03125,12.85157 0,5.05207 0.70313,9.49219 2.10938,13.32031 1.40624,3.80208 3.35937,6.94011 5.85937,9.41406 2.55208,2.52604 5.54688,4.38802 8.98438,5.58594 3.46353,1.17187 7.30469,1.75781 11.52343,1.75781 2.23958,0 4.28386,-0.18229 6.13282,-0.54687 1.87499,-0.33855 3.60677,-0.75521 5.19531,-1.25 1.875,-0.59896 3.38542,-1.17188 4.53125,-1.71875 1.17187,-0.54688 2.47396,-1.13282 3.90625,-1.75782 v -9.0625 h -0.54688 c -2.83854,2.55208 -5.88542,4.46615 -9.14062,5.74219 -3.25521,1.27604 -6.7448,1.91406 -10.46875,1.91406 -2.70833,0 -5.28646,-0.45573 -7.73438,-1.36718 -2.42187,-0.9375 -4.54427,-2.3698 -6.36718,-4.29688 -1.74479,-1.84896 -3.17709,-4.24479 -4.29688,-7.1875 -1.09375,-2.9427 -1.64062,-6.45834 -1.64062,-10.54687 0,-3.90625 0.49479,-7.34376 1.48437,-10.3125 1.01562,-2.99479 2.42188,-5.46876 4.21875,-7.42188 1.84896,-2.00521 3.94532,-3.47656 6.28906,-4.41406 2.36979,-0.96354 5.02605,-1.44531 7.96875,-1.44531 3.59375,0 6.96615,0.61198 10.11719,1.83593 3.15104,1.22396 6.32813,3.17709 9.53125,5.85938 h 0.58594 v -5.47266 c 2.2625,0.54597 4.74656,0.82031 7.45312,0.82031 2.83854,0 5.54688,-0.35156 8.125,-1.05468 2.57813,-0.70313 5.10417,-1.57553 7.57813,-2.61719 v -8.00781 h -0.39063 c -1.27604,1.14583 -3.42448,2.31771 -6.44531,3.51562 -2.99479,1.17188 -5.97656,1.75781 -8.94531,1.75781 -2.23958,0 -4.29688,-0.3125 -6.17188,-0.9375 -1.84895,-0.625 -3.45052,-1.5625 -4.80468,-2.8125 -1.40625,-1.27604 -2.51303,-2.90364 -3.32032,-4.88281 -0.80729,-2.0052 -1.21093,-4.34896 -1.21093,-7.03125 h 32.14843 v -3.98437 c 0,-6.328122 -1.60156,-11.210945 -4.80468,-14.648441 -3.17708,-3.437497 -7.70834,-5.15625 -13.59375,-5.15625 z m -85.39063,0.15625 c -2.63021,0 -5.29948,0.234375 -8.00781,0.703125 -2.70833,0.468749 -4.77865,0.898437 -6.21094,1.289062 v 7.460938 h 0.39062 c 2.52604,-0.963541 4.97397,-1.692709 7.34375,-2.1875 2.36979,-0.520833 4.51824,-0.78125 6.44532,-0.78125 1.58854,0 3.11198,0.104166 4.57031,0.3125 1.45833,0.208333 2.70833,0.611979 3.75,1.210937 1.09375,0.625 1.92708,1.484376 2.5,2.578125 0.59896,1.093749 0.89844,2.47396 0.89844,4.140625 v 1.132813 c -4.27083,0.208333 -8.26824,0.520833 -11.99219,0.9375 -3.72395,0.416666 -6.91407,1.210936 -9.57031,2.382816 -2.63021,1.17187 -4.66146,2.78646 -6.09375,4.84375 -1.40625,2.03124 -2.10938,4.70052 -2.10938,8.00781 0,4.03645 1.36719,7.35677 4.10156,9.96094 2.73438,2.60416 6.06772,3.90625 10,3.90625 2.13542,0 3.9974,-0.20834 5.58594,-0.625 1.58854,-0.39063 2.9948,-0.88542 4.21875,-1.48438 1.04167,-0.46875 2.10938,-1.09375 3.20313,-1.875 1.11979,-0.80729 2.00521,-1.43229 2.65625,-1.875 v 4.64844 h 7.30469 V 97.382814 c 0,-2.812497 -0.42969,-5.169273 -1.28907,-7.070313 -0.85937,-1.90104 -2.10937,-3.450522 -3.75,-4.648437 -1.66666,-1.223958 -3.64583,-2.083334 -5.9375,-2.578125 -2.26562,-0.520833 -4.9349,-0.78125 -8.00781,-0.78125 z m 85,5.898437 c 3.90625,0 6.8099,1.05469 8.71094,3.164063 1.92708,2.109373 2.90364,5.091149 2.92969,8.945311 h -25 c 0.3125,-3.437495 1.6276,-6.315105 3.94531,-8.632811 2.34375,-2.317706 5.48177,-3.476563 9.41406,-3.476563 z m 47.53906,0.664063 c 1.84896,0 3.55469,0.169271 5.11719,0.507812 1.5625,0.338541 3.33334,0.950522 5.3125,1.835938 V 116.25 c -1.84895,1.45833 -3.84115,2.65625 -5.97656,3.59375 -2.13542,0.91146 -4.24479,1.36719 -6.32813,1.36719 -3.90624,0 -6.74479,-1.34115 -8.51562,-4.02344 -1.77083,-2.70833 -2.65625,-6.65365 -2.65625,-11.83594 0,-5.26041 1.14583,-9.322916 3.4375,-12.187496 2.29166,-2.864581 5.49479,-4.296875 9.60937,-4.296875 z M 248.52149,104.10156 V 116.25 c -1.82292,1.40625 -3.80209,2.61719 -5.9375,3.63281 -2.13542,0.98959 -4.49219,1.48438 -7.07032,1.48438 -3.09895,0 -5.40364,-0.625 -6.91406,-1.875 -1.51041,-1.27604 -2.26562,-3.16407 -2.26562,-5.66406 0,-2.21354 0.65104,-3.94532 1.95312,-5.19532 1.30208,-1.27604 3.00782,-2.21354 5.11719,-2.8125 1.77083,-0.49479 4.16667,-0.87239 7.1875,-1.13281 3.04687,-0.26042 5.69011,-0.45573 7.92969,-0.58594 z m 177.78125,17.3086 v 12.53906 h -4.96094 v 6.17188 h 4.96094 v 23.20312 c 0,5.28645 1.15886,9.12761 3.47656,11.52344 2.31771,2.39583 5.70313,3.59375 10.15625,3.59375 1.27604,0 2.72136,-0.11719 4.33594,-0.35156 1.64062,-0.23438 3.15104,-0.53386 4.53125,-0.89844 v -6.60156 h -0.39062 c -0.57292,0.23437 -1.51042,0.53385 -2.81251,0.89843 -1.30208,0.33854 -2.55208,0.50782 -3.75,0.50782 -2.05728,0 -3.59375,-0.23438 -4.60937,-0.70313 -0.98958,-0.49479 -1.77083,-1.26302 -2.34375,-2.30469 -0.625,-1.11979 -0.98958,-2.31771 -1.09375,-3.59375 -0.10417,-1.30208 -0.15625,-3.09896 -0.15625,-5.39062 V 140.1211 h 15.15625 v -6.17188 h -15.15625 v -12.53906 z m -82.26563,11.32812 c -6.17187,0 -11.08073,2.07032 -14.72656,6.21094 -3.61979,4.11458 -5.42969,9.72657 -5.42969,16.83594 0,7.10937 1.8099,12.72136 5.42969,16.83594 3.64583,4.11458 8.55469,6.17187 14.72656,6.17187 6.11979,0 11.00261,-2.05729 14.64844,-6.17187 3.64583,-4.11458 5.46875,-9.72657 5.46875,-16.83594 0,-7.10937 -1.82292,-12.72136 -5.46875,-16.83594 -3.64583,-4.14062 -8.52865,-6.21094 -14.64844,-6.21094 z m 53.47657,0 c -2.57813,0 -5.09115,0.53386 -7.53907,1.60157 -2.44791,1.0677 -4.81771,2.55208 -7.10937,4.45312 v -4.84375 h -7.34375 v 43.63281 h 7.34375 v -32.57812 c 2.00521,-1.53646 4.10156,-2.79948 6.28906,-3.78906 2.1875,-0.98959 4.28386,-1.48438 6.28906,-1.48438 1.95313,0 3.54167,0.27344 4.76563,0.82031 1.22396,0.52084 2.16146,1.32813 2.8125,2.42188 0.625,0.98958 1.05469,2.36979 1.28906,4.14062 0.23438,1.74479 0.35156,3.6198 0.35156,5.625 v 24.84375 h 7.34375 v -28.32031 c 0,-5.33854 -1.23698,-9.42709 -3.71093,-12.26562 -2.47396,-2.83854 -6.06772,-4.25782 -10.78125,-4.25782 z m 75.03906,0.15625 c -2.78646,0 -5.3125,0.36459 -7.57812,1.09375 -2.23959,0.70313 -4.08855,1.66667 -5.54688,2.89063 -1.51041,1.25 -2.64323,2.66927 -3.39844,4.25781 -0.72916,1.58854 -1.09375,3.28125 -1.09375,5.07813 0,2.86458 0.79428,5.28646 2.38282,7.26562 1.61458,1.95312 4.33594,3.4375 8.16406,4.45313 1.3802,0.36458 2.90365,0.70312 4.57031,1.01562 1.69271,0.3125 3.0599,0.58594 4.10156,0.82031 2.8125,0.625 4.71355,1.38021 5.70313,2.26563 0.98958,0.88541 1.48437,2.1875 1.48437,3.90625 0,2.23958 -0.91146,3.88021 -2.73437,4.92187 -1.82292,1.04167 -4.34896,1.5625 -7.57813,1.5625 -2.60416,0 -5.32552,-0.50781 -8.16406,-1.52343 -2.83854,-1.04167 -5.41667,-2.4349 -7.73437,-4.17969 h -0.39063 v 8.24219 c 1.82291,0.91145 4.07552,1.75781 6.75781,2.53906 2.70833,0.75521 5.67709,1.13281 8.90625,1.13281 5.70312,0 10.19532,-1.27604 13.47657,-3.82812 3.30728,-2.55208 4.96093,-5.82032 4.96093,-9.80469 0,-3.17708 -0.92448,-5.72917 -2.77343,-7.65625 -1.84896,-1.90104 -4.47917,-3.24219 -7.89063,-4.02344 -1.11979,-0.26042 -2.52604,-0.54687 -4.21875,-0.85937 -1.66666,-0.3125 -3.17708,-0.625 -4.53125,-0.9375 -2.44791,-0.57292 -4.21875,-1.31511 -5.3125,-2.22657 -1.11979,-0.91145 -1.67969,-2.26562 -1.67969,-4.0625 0,-2.03124 0.92448,-3.55469 2.77344,-4.57031 1.84896,-1.04167 4.11459,-1.5625 6.79688,-1.5625 2.57812,0 5.20833,0.48177 7.89062,1.44531 2.68229,0.9375 4.96094,2.09636 6.83594,3.47657 h 0.39062 v -7.85157 c -1.77083,-0.91145 -3.9974,-1.67969 -6.67968,-2.30468 -2.65625,-0.65105 -5.28647,-0.97657 -7.89063,-0.97657 z m -128.51563,6.17188 c 3.93229,0 7.00521,1.38021 9.21875,4.14062 2.21354,2.73438 3.32032,6.92709 3.32032,12.57813 0,5.52083 -1.1198,9.6875 -3.35938,12.5 -2.21354,2.78645 -5.27344,4.17969 -9.17969,4.17969 -3.95833,0 -7.04427,-1.40626 -9.25781,-4.21875 -2.21354,-2.83854 -3.32031,-6.9922 -3.32031,-12.46094 0,-5.65104 1.09375,-9.84375 3.28125,-12.57813 2.21354,-2.76041 5.3125,-4.14062 9.29687,-4.14062 z"
       transform="matrix(0.26458333,0,0,0.26458333,20.077345,37.984166)" />
    <path
       id="path63"
       style="font-size:80px;white-space:pre;shape-inside:url(#rect51);display:inline;opacity:1;fill:#ffffff;fill-opacity:1;stroke:#c68adb;stroke-width:0.865;stroke-dasharray:none;stroke-opacity:1"
       inkscape:label="text51"
       d="m 65.399125,55.502476 v 16.081706 h 1.943034 v -8.619629 c 0.530545,-0.406521 1.085207,-0.740696 1.663983,-1.002523 0.578773,-0.261827 1.133435,-0.392741 1.66398,-0.392741 0.516763,0 0.937067,0.07235 1.260904,0.217041 0.323839,0.137804 0.571886,0.3514 0.744141,0.640788 0.165364,0.261827 0.279053,0.627008 0.341066,1.095541 0.06201,0.461642 0.09302,0.957736 0.09302,1.488281 v 6.573242 h 1.943034 v -7.493083 c 0,-1.412487 -0.327284,-2.49425 -0.981853,-3.24528 -0.654566,-0.75103 -1.605415,-1.126546 -2.852539,-1.126546 -0.682128,0 -1.347033,0.141249 -1.99471,0.423747 -0.647679,0.282497 -1.274685,0.675239 -1.881023,1.178222 v -5.818766 z m 55.169755,0 v 5.002279 c -0.51676,-0.268717 -1.00941,-0.465088 -1.47794,-0.589111 -0.46853,-0.130914 -1.00597,-0.196371 -1.61231,-0.196371 -0.66834,0 -1.31602,0.137804 -1.94303,0.413412 -0.62011,0.275607 -1.16444,0.675239 -1.63297,1.198893 -0.47543,0.537434 -0.85439,1.188558 -1.13689,1.953369 -0.2756,0.76481 -0.41341,1.636421 -0.41341,2.614826 0,1.881021 0.40308,3.352081 1.20923,4.413168 0.81304,1.061088 1.90858,1.591636 3.28662,1.591636 0.70969,0 1.3677,-0.134361 1.97404,-0.403077 0.60634,-0.268716 1.18856,-0.644234 1.74666,-1.126546 v 1.209228 h 1.94304 V 55.502476 Z m -64.295811,0.413412 c -1.674315,0 -3.055802,0.413412 -4.144452,1.240234 -1.088649,0.819932 -1.632974,1.874133 -1.632974,3.162598 0,1.1231 0.327285,2.036052 0.981853,2.738851 0.661456,0.695908 1.674318,1.188558 3.038573,1.477945 0.675238,0.137805 1.312582,0.251491 1.912028,0.341066 0.606337,0.08957 1.167889,0.203261 1.684652,0.341064 0.682127,0.179144 1.188558,0.430636 1.519288,0.754475 0.337619,0.323839 0.506428,0.826823 0.506428,1.508953 0,0.792372 -0.354846,1.426268 -1.064535,1.901693 -0.702797,0.475422 -1.688097,0.713134 -2.955891,0.713134 -0.895723,0 -1.853462,-0.175699 -2.873211,-0.5271 -1.019746,-0.351399 -1.918917,-0.85094 -2.697509,-1.498616 h -0.144692 v 2.563151 c 0.916392,0.406522 1.815565,0.713134 2.697509,0.91984 0.888833,0.206705 1.887913,0.31006 2.997231,0.31006 1.033529,0 1.915475,-0.124024 2.645834,-0.372071 0.737251,-0.248047 1.381484,-0.592558 1.932699,-1.033528 0.502983,-0.406522 0.892281,-0.902616 1.167887,-1.488282 0.282498,-0.585665 0.423748,-1.178224 0.423748,-1.777669 0,-1.102431 -0.28939,-1.960261 -0.868164,-2.573488 -0.578776,-0.613225 -1.440053,-1.071424 -2.583823,-1.374592 -0.564994,-0.144694 -1.254016,-0.285943 -2.067057,-0.423747 -0.813041,-0.137804 -1.44005,-0.254937 -1.881021,-0.3514 -0.833712,-0.192925 -1.415936,-0.471978 -1.746665,-0.837158 -0.330729,-0.36518 -0.496094,-0.868165 -0.496094,-1.508952 0,-0.716579 0.330732,-1.302246 0.992188,-1.756998 0.668348,-0.454752 1.550294,-0.682129 2.645833,-0.682129 0.999077,0 1.97404,0.165365 2.924887,0.496093 0.957736,0.323839 1.729438,0.733806 2.315104,1.2299 h 0.144695 v -2.418458 c -0.69591,-0.303168 -1.495174,-0.558105 -2.397786,-0.764811 -0.902616,-0.206705 -1.894806,-0.310058 -2.976563,-0.310058 z m 49.061601,3.803385 c -1.6812,0 -3.03857,0.554662 -4.0721,1.663981 -1.02664,1.10932 -1.539957,2.607939 -1.539957,4.49585 0,1.46894 0.321887,2.678179 0.958597,3.632854 -0.68166,-0.137713 -1.365661,-0.210842 -2.05207,-0.210842 -1.12999,0 -2.160077,0.175702 -3.090251,0.527101 -0.799478,0.304278 -1.4918,0.734999 -2.089796,1.276924 V 63.3883 c 0.516763,-0.420301 1.054201,-0.761367 1.612305,-1.023193 0.558104,-0.268718 1.136883,-0.403077 1.736328,-0.403077 0.372071,0 0.692465,0.01723 0.961181,0.05168 0.275609,0.02756 0.558107,0.07579 0.847495,0.144694 h 0.103352 V 60.16369 C 98.406586,60.11546 98.179208,60.08445 98.027626,60.07067 97.876041,60.05 97.631439,60.03966 97.29382,60.03966 c -0.613227,0 -1.21612,0.130914 -1.808676,0.392741 -0.585666,0.254937 -1.264351,0.692465 -2.036051,1.312581 V 60.039667 H 91.50606 v 11.544515 h 1.468644 c -0.575906,0.646457 -1.031696,1.410168 -1.352889,2.305802 -0.358291,0.999077 -0.537435,2.132515 -0.537435,3.400311 0,1.336693 0.186036,2.511475 0.558107,3.524332 0.372067,1.005967 0.888833,1.836237 1.550291,2.490803 0.675238,0.668348 1.467612,1.160997 2.377118,1.477947 0.916392,0.310057 1.932699,0.465087 3.048907,0.465087 0.592556,0 1.133438,-0.04823 1.622637,-0.144693 0.4961,-0.08957 0.9543,-0.199816 1.3746,-0.330729 0.49609,-0.158475 0.89572,-0.31006 1.19889,-0.454753 0.31006,-0.144695 0.65457,-0.299725 1.03353,-0.465089 v -2.397787 h -0.1447 c -0.75103,0.675238 -1.55718,1.181669 -2.41845,1.519288 -0.86128,0.337619 -1.784563,0.506428 -2.769859,0.506428 -0.716578,0 -1.398709,-0.120578 -2.046388,-0.361733 -0.640786,-0.248047 -1.202338,-0.627009 -1.684649,-1.136883 -0.461643,-0.489204 -0.840605,-1.1231 -1.136883,-1.901692 -0.289388,-0.77859 -0.434081,-1.708769 -0.434081,-2.790526 0,-1.033529 0.130913,-1.943037 0.39274,-2.728516 0.268716,-0.792371 0.640789,-1.446943 1.116211,-1.963706 0.489204,-0.530545 1.043866,-0.919839 1.66398,-1.167886 0.627007,-0.254937 1.329809,-0.382405 2.108399,-0.382405 0.950846,0 1.84313,0.16192 2.67684,0.485756 0.83371,0.32384 1.67432,0.840605 2.52181,1.550295 h 0.15503 v -1.447975 c 0.59862,0.144455 1.25586,0.21704 1.97197,0.21704 0.75103,0 1.46761,-0.09302 2.14974,-0.27905 0.68213,-0.186037 1.35048,-0.416859 2.00505,-0.692465 V 68.76265 h -0.10336 c -0.33762,0.303167 -0.90606,0.613227 -1.70532,0.930174 -0.79237,0.31006 -1.5813,0.465087 -2.36678,0.465087 -0.59255,0 -1.13688,-0.08268 -1.63298,-0.248047 -0.4892,-0.165364 -0.91295,-0.413411 -1.27123,-0.74414 -0.37207,-0.337619 -0.66491,-0.768255 -0.8785,-1.29191 -0.2136,-0.530543 -0.3204,-1.150663 -0.3204,-1.860352 h 8.50594 v -1.054198 c 0,-1.674315 -0.42374,-2.966229 -1.27124,-3.875733 -0.8406,-0.909504 -2.03949,-1.364258 -3.59668,-1.364258 z m -22.592933,0.04134 c -0.69591,0 -1.402154,0.06201 -2.118733,0.186036 -0.716579,0.124023 -1.264351,0.237711 -1.643311,0.341064 v 1.97404 h 0.103351 c 0.668348,-0.254937 1.31603,-0.447863 1.943034,-0.578776 0.627007,-0.137804 1.195451,-0.206706 1.705324,-0.206706 0.420301,0 0.823378,0.02756 1.209228,0.08268 0.38585,0.05512 0.716579,0.16192 0.992188,0.320394 0.289388,0.165365 0.509873,0.392741 0.661458,0.682129 0.158475,0.289388 0.237712,0.654568 0.237712,1.09554 v 0.299724 c -1.12999,0.05512 -2.187638,0.137803 -3.172933,0.248046 -0.985296,0.110243 -1.829348,0.320394 -2.532145,0.630454 -0.69591,0.310057 -1.233345,0.737251 -1.612305,1.281575 -0.37207,0.537433 -0.558106,1.24368 -0.558106,2.118733 0,1.067978 0.361735,1.946479 1.085204,2.635499 0.723471,0.689017 1.605418,1.033529 2.645833,1.033529 0.564997,0 1.057646,-0.05512 1.477947,-0.165365 0.420301,-0.103354 0.792374,-0.234267 1.116211,-0.392742 0.275608,-0.124023 0.558107,-0.289388 0.847495,-0.496094 0.296277,-0.213595 0.530545,-0.37896 0.702799,-0.496094 v 1.2299 h 1.932699 v -7.834147 c 0,-0.74414 -0.113688,-1.367704 -0.341066,-1.870687 -0.227375,-0.502984 -0.558104,-0.912951 -0.992188,-1.229899 -0.44097,-0.323839 -0.964625,-0.551215 -1.570963,-0.682129 -0.599445,-0.137804 -1.305692,-0.206706 -2.118733,-0.206706 z m 22.489583,1.560628 c 1.03353,0 1.80179,0.279054 2.30477,0.837159 0.50987,0.558105 0.76825,1.347033 0.77515,2.36678 h -6.61459 c 0.0827,-0.909504 0.43064,-1.670872 1.04387,-2.284098 0.62011,-0.613226 1.45038,-0.919841 2.4908,-0.919841 z m 12.57804,0.1757 c 0.48921,0 0.94051,0.04479 1.35393,0.134359 0.41341,0.08957 0.88194,0.251492 1.40559,0.485759 v 6.624918 c -0.4892,0.38585 -1.0163,0.702799 -1.58129,0.950846 -0.565,0.241157 -1.1231,0.361736 -1.67432,0.361736 -1.03353,0 -1.78456,-0.354846 -2.25309,-1.064535 -0.46853,-0.716579 -0.7028,-1.760445 -0.7028,-3.131593 0,-1.391817 0.30317,-2.466688 0.9095,-3.224608 0.60634,-0.75792 1.45383,-1.136882 2.54248,-1.136882 z m -31.977372,4.030761 v 3.214275 c -0.482314,0.37207 -1.00597,0.692465 -1.570963,0.961181 -0.564997,0.261829 -1.188559,0.392742 -1.870689,0.392742 -0.819931,0 -1.429713,-0.165365 -1.829345,-0.496094 -0.39963,-0.337619 -0.599446,-0.83716 -0.599446,-1.498616 0,-0.585665 0.172255,-1.043866 0.516763,-1.374595 0.344509,-0.337619 0.79582,-0.585665 1.353924,-0.74414 0.468532,-0.130914 1.102431,-0.23082 1.901692,-0.299723 0.806151,-0.0689 1.505509,-0.120579 2.098064,-0.15503 z m 47.037952,4.579567 v 3.317626 h -1.31258 v 1.632977 h 1.31258 v 6.139159 c 0,1.398706 0.30662,2.415013 0.91984,3.04891 0.61323,0.633896 1.50896,0.950846 2.68718,0.950846 0.33762,0 0.72002,-0.03101 1.14721,-0.09302 0.43409,-0.06201 0.83372,-0.14125 1.1989,-0.237712 v -1.746663 h -0.10335 c -0.15159,0.06201 -0.39964,0.141248 -0.74415,0.23771 -0.34451,0.08957 -0.67523,0.134361 -0.99218,0.134361 -0.54433,0 -0.95085,-0.06201 -1.21957,-0.186037 -0.26182,-0.130913 -0.46853,-0.334174 -0.62011,-0.609782 -0.16537,-0.296278 -0.26183,-0.613228 -0.28939,-0.950847 -0.0276,-0.344508 -0.0413,-0.819933 -0.0413,-1.426268 v -5.26066 h 4.01009 v -1.632977 h -4.01009 V 70.10727 Z m -21.76611,2.997232 c -1.63297,0 -2.93178,0.547772 -3.8964,1.643311 -0.95774,1.088649 -1.43661,2.573488 -1.43661,4.454509 0,1.881021 0.47887,3.36586 1.43661,4.454509 0.96462,1.088649 2.26343,1.632974 3.8964,1.632974 1.61919,0 2.91111,-0.544325 3.87573,-1.632974 0.96463,-1.088649 1.44694,-2.573488 1.44694,-4.454509 0,-1.881021 -0.48231,-3.36586 -1.44694,-4.454509 -0.96462,-1.095539 -2.25654,-1.643311 -3.87573,-1.643311 z m 14.14901,0 c -0.68213,0 -1.34704,0.14125 -1.99471,0.423749 -0.64768,0.282495 -1.27469,0.675237 -1.88103,1.178221 v -1.281576 h -1.94303 V 84.96941 h 1.94303 v -8.619628 c 0.53055,-0.406522 1.08521,-0.740696 1.66399,-1.002522 0.57877,-0.261829 1.13343,-0.392742 1.66398,-0.392742 0.51676,0 0.93706,0.07235 1.2609,0.21704 0.32384,0.137806 0.57189,0.351401 0.74414,0.640789 0.16537,0.261827 0.27906,0.627007 0.34107,1.095539 0.062,0.461643 0.093,0.957739 0.093,1.488281 v 6.573243 h 1.94304 v -7.493082 c 0,-1.412489 -0.32729,-2.494251 -0.98185,-3.245279 -0.65457,-0.75103 -1.60542,-1.126548 -2.85254,-1.126548 z m 19.85408,0.04134 c -0.73725,0 -1.4056,0.09646 -2.00504,0.289388 -0.59256,0.186036 -1.08176,0.440973 -1.46761,0.764812 -0.39963,0.33073 -0.69936,0.706245 -0.89917,1.126546 -0.19293,0.420301 -0.28939,0.868164 -0.28939,1.343589 0,0.75792 0.21015,1.398709 0.63045,1.922362 0.42719,0.516763 1.14722,0.909505 2.16008,1.178223 0.36517,0.09646 0.76825,0.186034 1.20922,0.268717 0.44787,0.08268 0.8096,0.15503 1.08521,0.21704 0.74414,0.165365 1.24713,0.365181 1.50895,0.599448 0.26183,0.234265 0.39274,0.578776 0.39274,1.033529 0,0.592555 -0.24116,1.026638 -0.72347,1.302244 -0.48231,0.275609 -1.15066,0.413412 -2.00504,0.413412 -0.68902,0 -1.40905,-0.134358 -2.16008,-0.403074 -0.75103,-0.275609 -1.43316,-0.644234 -2.04638,-1.105877 h -0.10336 v 2.180746 c 0.48231,0.241155 1.07832,0.465088 1.78801,0.671793 0.71657,0.199816 1.50206,0.299723 2.35644,0.299723 1.50895,0 2.69751,-0.337619 3.56568,-1.012857 0.87505,-0.675238 1.31258,-1.539959 1.31258,-2.594157 0,-0.840603 -0.24461,-1.515843 -0.73381,-2.025716 -0.4892,-0.502984 -1.18511,-0.85783 -2.08773,-1.064536 -0.29627,-0.0689 -0.66834,-0.144692 -1.11621,-0.227375 -0.44097,-0.08268 -0.8406,-0.165364 -1.19889,-0.248046 -0.64768,-0.151586 -1.11621,-0.347957 -1.4056,-0.589114 -0.29628,-0.241154 -0.44442,-0.599445 -0.44442,-1.07487 0,-0.537432 0.2446,-0.940511 0.73381,-1.209227 0.4892,-0.275609 1.08865,-0.413412 1.79834,-0.413412 0.68213,0 1.37804,0.127468 2.08773,0.382405 0.70969,0.248047 1.31258,0.554662 1.80867,0.919843 h 0.10335 v -2.077395 c -0.46853,-0.241154 -1.05764,-0.444418 -1.76733,-0.60978 -0.7028,-0.172257 -1.39871,-0.258384 -2.08773,-0.258384 z m -34.00309,1.632977 c 1.04042,0 1.85346,0.36518 2.43913,1.095539 0.58566,0.723471 0.8785,1.832792 0.8785,3.327963 0,1.46072 -0.29628,2.563151 -0.88884,3.307292 -0.58566,0.737248 -1.39526,1.105876 -2.42879,1.105876 -1.04731,0 -1.8638,-0.372073 -2.44946,-1.116211 -0.58567,-0.75103 -0.8785,-1.850019 -0.8785,-3.296957 0,-1.495171 0.28939,-2.604492 0.86816,-3.327963 0.58567,-0.730359 1.4056,-1.095539 2.4598,-1.095539 z" />
  </g>
</svg>
